<?xml version="1.0" encoding="utf-8"?>
<!-- Generator: Adobe Illustrator 24.1.0, SVG Export Plug-In . SVG Version: 6.00 Build 0)  -->
<svg version="1.1" id="Layer_1" xmlns="http://www.w3.org/2000/svg" xmlns:xlink="http://www.w3.org/1999/xlink" x="0px" y="0px"
	 viewBox="0 0 350 350" style="enable-background:new 0 0 350 350;" xml:space="preserve">
<style type="text/css">
	.st0{fill:#96398B;}
	.st1{fill:#FFFFFF;}
</style>
<path class="st0" d="M175.2,350c96.6,0,175-78.4,175-175S271.9,0,175.2,0S0.2,78.3,0.2,175S78.6,350,175.2,350"/>
<path class="st1" d="M77,194.9c-0.1-1.5-0.4-3-0.8-4.4c-0.6-1.9-1.3-2.8-2.2-2.8c-0.6,0-1.1,0.2-1.7,0.3c-0.8,0.2-1.6,0.3-2.5,0.3
	c-1.3,0.1-2.6-0.5-3.4-1.6c-0.8-1-1.2-2.9-1.2-5.6v-39.8h7.6c0.9,0.1,1.7-0.4,2.2-1.1c0.5-1.1,0.7-2.4,0.7-3.6v-1.7
	c0.1-1.2-0.1-2.5-0.7-3.6c-0.5-0.8-1.3-1.2-2.2-1.1h-7.6v-13.3c0-2.2-1.6-3.3-4.7-3.3h-2.1c-3.1,0-4.8,1.1-5,3.3l-1.7,13.3h-3.4
	c-0.9-0.1-1.8,0.4-2.3,1.1c-0.6,1.1-0.8,2.3-0.7,3.6v1.7c-0.1,1.2,0.2,2.5,0.7,3.6c0.5,0.8,1.4,1.2,2.3,1.1h3.4v40.8
	c0,6.2,1.5,10.6,4.4,13.2c2.9,2.6,6.7,4.1,10.7,4c2.3,0,4.6-0.3,6.8-1C76,197.7,77,196.5,77,194.9 M106.5,232.1
	c0,5.1-4.1,9.2-9.2,9.2s-9.2-4.1-9.2-9.2c0-5.1,4.1-9.2,9.2-9.2l0,0C102.3,222.9,106.5,227,106.5,232.1 M118.2,232.1
	c0-9.2-6-17.3-14.8-20v-78.8c0-2.2-2-3.3-6-3.3h-1.3c-4,0-6,1.1-6,3.3v79.2c-10.8,4-16.4,16-12.4,26.8s16,16.4,26.8,12.4
	C112.7,248.7,118.2,240.9,118.2,232.1 M153.4,180.1c-1.2,2.3-2.8,4.3-4.8,5.9c-1.6,1.3-3.6,2-5.6,2.1c-3.4,0-5.9-2-7.6-6.1
	c-1.7-4.1-2.5-10-2.5-17.9c0-7.8,0.9-13.7,2.8-17.5s4.7-5.8,8.5-5.8c3.6,0,6.6,1.6,9.3,4.7L153.4,180.1z M168.4,195.4
	c-0.2-1.6-0.4-3.2-0.7-4.8c-0.6-4.1-0.8-8.3-0.7-12.4v-74.5c0-2.2-1.9-3.3-5.7-3.3h-2.1c-3.8,0-5.7,1.1-5.7,3.3v31.7
	c-3.2-3.8-7.9-5.9-12.9-5.9c-6.6,0-11.8,3-15.7,9.1c-3.9,6.1-5.8,14.6-5.8,25.5c-0.1,6.3,0.7,12.6,2.5,18.6c1.6,5.3,4,9.4,7,12.3
	c2.8,2.8,6.7,4.4,10.7,4.4c3,0,5.9-0.8,8.4-2.5c2.7-1.8,5-4.3,6.6-7.2c0.3,2.3,0.8,4.5,1.5,6.7c0.4,1.3,1.7,2.2,3.1,2.1
	c2.1,0,4.1-0.3,6.1-0.8C167.2,197.2,168.4,196.4,168.4,195.4 M226.9,134.5c0.2-0.7,0.3-1.4,0.3-2.1c0-1.6-1.7-2.3-5.2-2.3h-2.6
	c-3.3,0-5.1,0.7-5.5,2.2l-7.8,35.4c-0.4,2.3-1.1,6.8-2.1,13.7l-0.5,3.8h-0.8c-1.1-7.8-2.1-13.6-2.9-17.5l-7.8-35.4
	c-0.3-1.5-2.1-2.2-5.2-2.2h-2.9c-3.7,0-5.6,0.8-5.6,2.3c0,0.7,0.1,1.4,0.3,2.1l15.9,62c0.4,1.5,2.2,2.2,5.3,2.2h6
	c3.1,0,4.9-0.7,5.3-2.2L226.9,134.5z M256.6,232.1c0,5.1-4.1,9.2-9.2,9.2s-9.2-4.1-9.2-9.2c0-5.1,4.1-9.2,9.2-9.2l0,0
	C252.5,222.9,256.6,227,256.6,232.1 M268.3,232.1c0-9.4-6.4-17.7-15.5-20.1v-78.6c0-2.2-2-3.3-6-3.3h-1.3c-4,0-6,1.1-6,3.3v79.4
	c-10.7,4.3-15.8,16.5-11.5,27.2s16.5,15.8,27.2,11.5C263.2,248.3,268.3,240.6,268.3,232.1 M301,140.5c0.9-1.5,1.5-3.2,1.6-5
	c0-1.7-1.6-3.2-4.8-4.4c-3.3-1.2-6.8-1.8-10.4-1.8c-5.8,0-10.6,1.7-14.3,5.2s-5.5,8.1-5.5,13.9c0,4.9,1.2,8.7,3.5,11.6
	c2.8,3.2,6.2,5.7,10.1,7.4c2.9,1.4,5.6,3.2,8,5.5c1.8,1.9,2.7,4.3,2.6,6.9c0,2.7-0.7,4.7-2.2,6.1c-1.5,1.4-3.6,2.1-6.4,2.1
	c-1.8,0-3.5-0.3-5.1-1c-1.5-0.6-2.9-1.4-4.2-2.3c-0.7-0.6-1.5-1-2.3-1.3c-0.9,0-2,1-3.3,3s-2,3.6-2,4.8s0.8,2.5,2.5,3.8
	c2,1.5,4.3,2.5,6.6,3.2c2.8,0.8,5.7,1.3,8.7,1.2c6.1,0,11.1-1.9,15-5.6s5.9-8.6,5.9-14.6c0-5.1-1.2-9.2-3.5-12.2s-5.9-5.7-10.7-8
	c-2.6-1.4-5.1-3.2-7.3-5.2c-1.7-1.7-2.6-4.1-2.5-6.5c-0.1-1.9,0.7-3.8,2.2-5.1c1.6-1.3,3.7-1.9,5.7-1.8c2.2,0,4.3,0.5,6.3,1.5
	c1,0.6,2,1.1,3,1.5C299,143.7,299.9,142.6,301,140.5"/>
</svg>
